<svg width="232" height="41" viewBox="0 0 232 41" fill="none" xmlns="http://www.w3.org/2000/svg">
<path d="M2.794 40.5118V1.1216H10.7283V40.5118H2.794ZM13.767 40.5118V32.5775C14.5923 32.5775 15.3614 32.2399 16.0741 31.5646C16.5993 30.9644 16.8807 30.2516 16.9182 29.4263V12.2071C16.9182 11.4568 16.5993 10.7253 15.9616 10.0125C15.3614 9.41231 14.6298 9.09343 13.767 9.05592V1.1216C17.9311 1.1216 21.0823 2.97857 23.2207 6.69251C24.3086 8.60575 24.8525 10.444 24.8525 12.2071V29.4263C24.8525 33.703 22.9581 36.8917 19.1691 38.9925C17.2934 40.0054 15.4927 40.5118 13.767 40.5118ZM28.2153 29.6514V1.1216H36.1497V29.6514C36.1872 31.1895 37.05 32.2024 38.7382 32.6901C39.0008 32.7651 39.1883 32.8026 39.3009 32.8026V40.7932C37.125 40.7932 34.9492 40.0242 32.7734 38.4861C29.7722 36.2727 28.2529 33.3278 28.2153 29.6514ZM42.3396 40.7932V32.8026C43.0148 32.8026 43.7276 32.4837 44.4779 31.846C45.1156 31.2458 45.4533 30.5142 45.4908 29.6514V1.1216H53.3688V29.6514C53.3688 33.8905 51.4931 37.0605 47.7416 39.1613C45.8659 40.2492 44.0652 40.7932 42.3396 40.7932ZM56.7879 30.3266V11.3631C56.7879 9.18722 57.5945 7.06765 59.2076 5.00435C61.3459 2.26579 64.2345 0.877755 67.8734 0.840241V8.77456C66.2978 8.81208 65.2849 9.54361 64.8348 10.9692C64.7597 11.1192 64.7222 11.2505 64.7222 11.3631V30.3266C64.7222 30.9269 65.0411 31.5084 65.6788 32.0711C66.2791 32.5963 67.0106 32.8589 67.8734 32.8589V40.7932C63.6718 40.7932 60.5018 39.03 58.3635 35.5037C57.3131 33.703 56.7879 31.9773 56.7879 30.3266ZM70.9121 40.7932V32.8589C70.9121 32.8589 71.3435 32.6901 72.2064 32.3524C72.7316 31.9773 73.088 31.5834 73.2755 31.1707C73.4631 30.683 73.5569 29.989 73.5569 29.0887V28.4134L81.3224 30.2704C81.3224 33.5341 80.0094 36.2352 77.3834 38.3735C75.3951 39.9866 73.238 40.7932 70.9121 40.7932ZM70.9121 8.77456V0.840241C73.6507 0.840241 76.1266 2.04071 78.34 4.44163C80.3283 6.61748 81.3224 8.96213 81.3224 11.4756L73.5569 13.5014V12.6573C73.5569 11.7195 73.4631 11.0254 73.2755 10.5753C73.1255 10.2001 72.8441 9.86248 72.4314 9.56237C72.0563 9.26225 71.7187 9.05592 71.4186 8.94338L70.9121 8.77456ZM83.6723 40.5118L90.9314 7.76167H91.7754L95.1517 23.5178L91.4378 40.5118H83.6723ZM95.6582 35.7287L97.3463 27.9632H99.3721L93.4073 1.1216H101.229L110.514 40.5118H102.636L101.51 35.7287H95.6582ZM111.851 8.8871V1.1216H136.217V8.8871H128.001V40.5118H120.067V8.8871H111.851ZM138.848 40.5118V1.1216H146.782V40.5118H138.848Z" fill="#F1F2F2"/>
<path d="M152.765 40.5118V1.12159H160.643V40.5118H152.765ZM163.738 40.5118V33.5904H164.019C166.27 33.5904 167.771 32.6525 168.521 30.7768C168.784 30.1766 168.915 29.5576 168.915 28.9198C168.915 27.0441 168.165 25.6936 166.664 24.8683C165.914 24.4556 165.089 24.2493 164.188 24.2493H163.738V17.3841H164.188C166.289 17.3841 167.733 16.4838 168.521 14.6831C168.784 14.0453 168.915 13.3888 168.915 12.7136C168.915 10.8754 168.146 9.52484 166.608 8.66201C165.82 8.24935 164.957 8.04302 164.019 8.04302H163.738V1.12159H165.089C169.965 1.12159 173.398 2.90353 175.386 6.46741C176.324 8.19308 176.793 10.0876 176.793 12.1509C176.793 15.4146 175.799 18.0594 173.811 20.0852C173.511 20.3478 173.229 20.5916 172.967 20.8167C175.142 22.4298 176.399 24.887 176.737 28.1883C176.774 28.6385 176.793 29.0699 176.793 29.4826C176.793 33.1215 175.518 35.9726 172.967 38.0359C170.866 39.6865 168.24 40.5118 165.089 40.5118H163.738ZM180.1 29.5388V11.0254C180.1 9.03715 180.944 7.01137 182.632 4.94807C184.883 2.24703 187.734 0.877748 191.185 0.840233V8.77455C189.647 8.81207 188.634 9.6749 188.147 11.3631C188.071 11.6257 188.034 11.8132 188.034 11.9258V29.5388C188.034 31.0769 188.878 32.1273 190.566 32.6901C190.829 32.7651 191.016 32.8026 191.129 32.8026V40.7932C188.991 40.7932 186.852 40.0241 184.714 38.486C181.675 36.2352 180.137 33.2528 180.1 29.5388ZM194.224 40.7932V32.8026C194.824 32.8026 195.499 32.4837 196.25 31.846C196.962 31.2082 197.338 30.4392 197.375 29.5388V11.9258C197.375 11.2505 197.056 10.5377 196.418 9.78745C195.818 9.1497 195.087 8.81207 194.224 8.77455V0.840233C198.013 0.840233 201.052 2.47211 203.34 5.73588C204.653 7.6116 205.309 9.37479 205.309 11.0254V29.5388C205.309 33.7029 203.452 36.8917 199.739 39.105C197.788 40.2305 195.95 40.7932 194.224 40.7932ZM207.716 40.5118L215.369 20.1977L208.391 1.12159H216.1L219.308 9.6749L222.515 1.12159H230.224L223.247 20.1977L230.9 40.5118H222.74L219.308 31.1144L215.875 40.5118H207.716Z" fill="url(#paint0_linear_1_2743)"/>
<defs>
<linearGradient id="paint0_linear_1_2743" x1="172.019" y1="24.2711" x2="271.862" y2="28.2441" gradientUnits="userSpaceOnUse">
<stop stop-color="#ED1C24"/>
<stop offset="1"/>
</linearGradient>
</defs>
</svg>
